HIERARCHY
ROOT Hips
{
  OFFSET 90.7885 88.945 -76.2838
  CHANNELS 6 Xposition Yposition Zposition Zrotation Xrotation Yrotation
  JOINT LeftUpLeg
  {
    OFFSET 8.64259 1.95398 -2.38835
    CHANNELS 3 Zrotation Xrotation Yrotation
    JOINT LeftLeg
    {
      OFFSET 43.7702 0 0
      CHANNELS 3 Zrotation Xrotation Yrotation
      JOINT LeftFoot
      {
        OFFSET 40.6238 0 0
        CHANNELS 3 Zrotation Xrotation Yrotation
        JOINT LeftToeBase
        {
          OFFSET 12.7242 0 0
          CHANNELS 3 Zrotation Xrotation Yrotation
          End Site
          {
            OFFSET 0 0 0
          }
        }
      }
    }
  }
  JOINT RightUpLeg
  {
    OFFSET -8.2249 1.95398 -2.59336
    CHANNELS 3 Zrotation Xrotation Yrotation
    JOINT RightLeg
    {
      OFFSET 43.5653 0 0
      CHANNELS 3 Zrotation Xrotation Yrotation
      JOINT RightFoot
      {
        OFFSET 40.6238 0 0
        CHANNELS 3 Zrotation Xrotation Yrotation
        JOINT RightToeBase
        {
          OFFSET 12.7242 0 0
          CHANNELS 3 Zrotation Xrotation Yrotation
          End Site
          {
            OFFSET 0 0 0
          }
        }
      }
    }
  }
  JOINT Spine
  {
    OFFSET 0.165834 0.87714 6.61349
    CHANNELS 3 Zrotation Xrotation Yrotation
    JOINT Spine1
    {
      OFFSET 7.38963 1.71661e-005 0
      CHANNELS 3 Zrotation Xrotation Yrotation
      JOINT Spine2
      {
        OFFSET 11.9445 1.14441e-005 0
        CHANNELS 3 Zrotation Xrotation Yrotation
        JOINT Spine3
        {
          OFFSET 14.7254 4.19617e-005 0
          CHANNELS 3 Zrotation Xrotation Yrotation
          JOINT Spine4
          {
            OFFSET 10.9679 0 0
            CHANNELS 3 Zrotation Xrotation Yrotation
            JOINT RightShoulder
            {
              OFFSET 2.46616 -1.6653 3.69651
              CHANNELS 3 Zrotation Xrotation Yrotation
              JOINT RightArm
              {
                OFFSET 13.0012 0 0
                CHANNELS 3 Zrotation Xrotation Yrotation
                JOINT RightForeArm
                {
                  OFFSET 28.7848 1.52588e-005 0
                  CHANNELS 3 Zrotation Xrotation Yrotation
                  JOINT RightHand
                  {
                    OFFSET 26.5688 1.52588e-005 0
                    CHANNELS 3 Zrotation Xrotation Yrotation
                    End Site
                    {
                      OFFSET 0 0 0
                    }
                  }
                }
              }
            }
            JOINT LeftShoulder
            {
              OFFSET 2.38034 -1.29275 -3.7523
              CHANNELS 3 Zrotation Xrotation Yrotation
              JOINT LeftArm
              {
                OFFSET 16.3182 6.10352e-005 0
                CHANNELS 3 Zrotation Xrotation Yrotation
                JOINT LeftForeArm
                {
                  OFFSET 27.0901 0 0
                  CHANNELS 3 Zrotation Xrotation Yrotation
                  JOINT LeftHand
                  {
                    OFFSET 24.5451 1.52588e-005 0
                    CHANNELS 3 Zrotation Xrotation Yrotation
                    End Site
                    {
                      OFFSET 0 0 0
                    }
                  }
                }
              }
            }
            JOINT Neck
            {
              OFFSET 5.0226 -0.0266342 0
              CHANNELS 3 Zrotation Xrotation Yrotation
              JOINT Head
              {
                OFFSET 6.69363 2.86102e-005 0
                CHANNELS 3 Zrotation Xrotation Yrotation
                End Site
                {
                  OFFSET 0 0 0
                }
              }
            }
          }
        }
      }
    }
  }
}
MOTION
Frames:	18
Frame Time:	0.0416667
67.0111 91.3786 -106.234 89.3813 51.2048 90.3679 -176.582 38.7541 86.6699 -42.6318 19.1427 -1.44582 64.5165 2.47305 6.96449 17.0615 5.26153 -4.43584 171.975 -20.583 91.9773 -50.0147 -8.20621 -0.574557 61.85 -1.30849 -0.124448 20.8579 -1.91611 5.41606 2.0725 8.24167 -89.5583 10.3866 4.33118 0.496991 -1.27712 4.34885 0.305514 -23.8627 3.98134 1.77773 -3.85008 3.98134 1.77772 89.6479 -25.6204 -109.295 34.9227 -14.4099 -7.63752 -36.6545 -9.15012 -81.403 -30.3762 2.05735 -22.1417 -89.8344 -53.7103 79.7373 -18.539 16.9014 30.3829 61.1812 -26.7542 -96.6594 20.0182 0.0248137 -3.76337 16.261 -10.2355 -6.34727 -9.17785 -7.97797 -3.3535 
74.0185 88.9335 -114.826 97.0962 51.9816 78.3936 -172.76 33.3016 80.3734 -57.4922 19.6763 -2.33663 77.1006 8.36248 5.22401 9.93626 2.9063 -0.290979 168.315 -12.3947 82.8966 -74.4611 -8.19255 -2.06005 65.7395 -3.25981 -3.95489 15.1206 -2.97193 7.75312 1.07772 8.69384 -88.9578 9.46196 2.61805 1.86875 -2.20753 2.69774 1.75169 -24.7449 1.93555 2.56906 -4.7322 1.93556 2.56906 88.5693 -30.5947 -109.333 38.3704 -13.9575 -4.50074 -41.4257 -15.8628 -77.677 -30.5591 0.207795 -16.2424 -90.1433 -57.8035 80.0885 -14.3449 19.0799 13.1612 57.8923 -21.2004 -93.9402 17.7695 -0.136536 -4.62894 16.3755 -8.3445 -7.41289 -6.21091 -5.96944 -1.50905 
79.7556 87.8986 -122.658 95.6204 49.7999 76.2986 -170.825 28.0483 77.3368 -61.3137 18.0885 -4.02602 81.9249 11.7953 10.0176 22.2594 6.46949 -7.21298 174.372 4.38713 79.1462 -94.0985 -8.0035 -2.98426 70.1277 -5.96828 -5.99932 8.44829 -2.82823 7.78381 0.520874 8.4938 -88.4293 9.85185 1.75009 2.97665 -1.82119 1.87936 2.89683 -24.3314 0.775177 3.36458 -4.31875 0.775192 3.36458 89.2859 -32.4128 -107.23 44.4095 -9.75407 3.47809 -39.717 -17.9447 -77.5861 -28.0928 0.558822 -18.8484 -89.871 -57.1186 80.3355 -4.64972 23.7655 -10.8657 61.6791 -19.3915 -89.7993 7.52078 -0.485216 -8.58587 17.8437 -6.42939 -7.41148 -8.50933 -3.92471 -2.20252 
85.6593 89.0373 -129.387 93.7343 48.4335 79.8299 -170.658 22.6421 80.7652 -61.4032 17.2599 -4.1545 85.0336 12.8397 7.56001 23.4952 5.69789 -6.70306 -179.479 21.805 82.1885 -99.2566 -8.62787 -2.62802 71.9061 -7.2917 -7.41495 8.49401 -3.82048 9.3138 -0.0619398 7.9931 -88.7012 10.8783 0.477226 2.53986 -0.794994 0.588537 2.5164 -23.3102 -0.307879 2.56589 -3.29756 -0.307881 2.56588 89.7076 -31.8509 -106.642 47.0879 -10.7374 13.6864 -32.4805 -13.4774 -76.1819 -27.0474 1.70025 -22.1736 -88.6435 -55.4024 81.7435 2.63759 22.7988 -24.176 53.9448 -21.2012 -92.7917 9.05341 -0.978547 -10.5858 15.9833 -2.50408 -5.45358 -8.32126 -0.82234 -1.92109 
93.0371 92.138 -136.338 97.0377 46.6639 80.702 -170.734 11.4945 87.3873 -55.1911 18.4844 -4.28425 78.0654 9.46283 8.89789 38.4524 6.37289 -13.2436 -178.421 28.9134 87.047 -89.1248 -1.65615 -2.83736 74.143 -8.34834 -7.23534 8.0426 -3.94148 9.50776 -0.638173 8.04607 -89.2023 10.7852 -0.902698 1.66818 -0.886611 -0.828406 1.70627 -23.4182 -1.36227 1.31985 -3.40561 -1.36229 1.31983 89.3499 -30.5241 -107.835 46.2186 -13.1069 19.746 -33.6636 -12.673 -74.2886 -28.7382 1.89582 -22.2748 -88.2865 -49.8766 81.2671 -3.26719 11.9762 -25.9072 47.6113 -19.7951 -99.834 36.1911 2.80578 1.96999 17.8764 1.34005 -3.98364 -10.0899 2.54229 -0.904799 
100.822 95.6133 -144.362 98.462 43.9976 83.4593 -171.003 -1.54797 91.4897 -43.1768 18.4172 -3.7275 69.0305 4.61705 6.43785 45.8624 3.3906 -10.9343 -178.573 30.2449 92.69 -69.3033 -1.19484 -3.24256 71.7884 -6.89731 -7.38953 9.68007 -2.8774 7.81436 -0.906622 8.04214 -89.7987 10.7946 -1.71235 0.559265 -0.875399 -1.68608 0.634104 -23.4196 -1.80124 0.0186221 -3.40695 -1.80122 0.0186212 89.6879 -28.9667 -107.788 44.8793 -12.8748 22.3212 -35.5261 -16.1582 -70.9235 -26.784 1.28938 -21.8851 -88.3644 -47.9572 80.7861 -5.45911 8.21211 -26.524 46.4409 -19.3057 -100.985 38.0156 3.13022 4.37163 19.1518 4.162 -1.98264 -12.4554 4.65336 -0.0858765 
108.604 98.0228 -152.757 98.124 42.7004 86.179 -172.39 -13.0126 92.7482 -31.0802 17.8483 -1.20002 60.9143 0.729537 3.69127 41.5034 0.526542 -4.118 179.555 26.9639 95.5696 -43.1746 -9.02325 -2.47658 66.8287 -4.05391 -3.21442 13.6246 -2.1758 6.46052 -1.0676 7.74281 -90.2787 11.3853 -2.25417 -0.327233 -0.283692 -2.26639 -0.227657 -22.832 -2.05158 -0.989846 -2.81935 -2.05157 -0.989844 90.2638 -27.0165 -107.406 45.5613 -11.2298 25.5006 -30.9471 -19.0899 -65.5721 -28.0461 1.85606 -23.2323 -88.6993 -47.5696 80.1938 -5.98375 11.281 -25.2948 49.7974 -22.0086 -99.3133 11.8561 -0.296706 -5.70666 18.322 5.77846 -0.294774 -15.4484 5.59852 0.958688 
116.313 98.2499 -161.021 96.8815 42.6957 87.217 -173.166 -18.8992 92.7395 -28.0911 14.2467 0.087863 60.5101 0.523471 0.138944 31.936 -3.06104 4.35049 177.478 21.0467 96.3591 -15.8101 -12.8118 -0.33146 61.5479 -2.39412 -2.09334 18.0364 -1.52407 4.92469 -1.14588 7.39388 -90.5293 12.0794 -2.52805 -0.779939 0.410746 -2.55991 -0.667867 -22.138 -2.17675 -1.50393 -2.12537 -2.17675 -1.50393 90.7627 -26.2872 -106.664 44.2834 -8.01267 28.3453 -26.9702 -20.0425 -62.0759 -25.4014 1.79048 -24.0013 -88.4992 -47.1394 80.4158 -8.47576 13.4223 -27.076 51.3917 -20.1683 -96.8009 5.07785 -0.436394 -9.48726 17.7039 6.25092 0.855918 -16.6305 5.67209 1.27972 
123.886 96.479 -168.652 98.5386 44.244 84.2955 -172.463 -22.2067 92.9062 -33.0218 12.6994 0.273738 65.8474 2.9993 2.28639 31.8409 -2.68193 3.62616 176.113 20.0144 95.2306 -11.8158 -11.2082 0.190211 61.5069 -2.20139 -0.383522 22.8013 -0.456422 2.15946 -1.30425 7.31451 -90.4559 12.2401 -2.80834 -0.596567 0.572102 -2.83188 -0.472298 -21.9822 -2.49917 -1.41347 -1.96956 -2.49916 -1.41347 90.5477 -26.7385 -106.929 42.1841 -4.66363 28.4812 -22.4008 -19.2425 -56.5607 -23.8255 1.71713 -23.2975 -88.4896 -48.6758 80.7346 -9.13129 14.4331 -30.3162 43.5949 -15.3468 -93.7534 12.5652 -0.447126 -7.07161 17.3045 5.72571 0.768631 -15.8418 5.20551 1.23409 
130.74 93.6631 -175.625 101.89 45.4261 80.2725 -169.355 -21.2634 95.4382 -44.3432 10.5902 -0.130988 66.1745 3.52264 1.87101 33.7378 -1.75267 1.88463 173.978 26.4954 93.8191 -32.8476 -15.2821 0.999797 60.3303 -0.210576 -0.319627 3.32965 1.7309 1.61783 -1.30797 7.37842 -90.1611 12.1198 -2.67619 -0.0260277 0.451597 -2.67471 0.091856 -22.1041 -2.54457 -0.829656 -2.09148 -2.54455 -0.829657 90.3235 -28.6527 -106.631 41.506 -3.52979 25.4737 -16.9605 -20.8712 -48.3538 -27.3416 1.77277 -20.2866 -89.0867 -48.4995 79.7905 -10.3713 16.3623 -31.1289 41.2092 -10.9909 -88.3014 11.1365 -0.784597 -10.2251 16.9349 4.0518 -2.42012 -14.9497 4.34262 2.65408 
137.144 90.6215 -181.094 104.324 46.2442 81.8584 -164.271 -11.8581 103.682 -62.251 7.95127 1.48024 68.5807 4.58829 1.0975 37.1412 -1.36826 0.667376 172.598 29.9768 98.8082 -53.1397 -15.4033 2.32761 70.1517 -5.51286 -8.59428 7.0783 -0.66237 4.57439 -0.93818 7.49378 -90.6591 11.8823 -2.17615 -1.08457 0.212935 -2.22177 -0.987719 -22.3294 -1.74957 -1.68851 -2.31677 -1.74957 -1.68852 91.3949 -28.5553 -104.499 42.0866 -2.9963 19.0939 -13.4003 -23.9035 -41.2561 -32.7491 0.767605 -13.8441 -90.0988 -54.5917 79.5328 -8.87935 19.6286 -32.3568 47.3796 -4.07482 -80.5844 5.5515 -0.52743 -10.7029 14.6496 3.06432 1.44281 -10.8345 2.50096 1.23012 
142.24 89.8066 -185.428 106.105 48.2773 84.0569 -167.606 3.18099 104.805 -78.208 11.6801 5.48542 69.8735 5.32671 5.29775 35.1297 0.847654 -2.42256 170.43 25.1763 101.55 -56.3198 -14.1956 4.36506 76.7115 -9.49962 -8.83842 4.97975 -1.09909 5.42624 -0.806015 7.6764 -91.1423 11.4951 -2.13735 -2.05467 -0.175659 -2.22568 -1.95863 -22.7047 -1.42128 -2.60181 -2.69207 -1.42126 -2.6018 91.765 -30.8954 -102.929 38.1046 -7.68229 4.7228 -5.04054 -26.9055 -26.7175 -31.1023 -0.121637 -10.7495 -91.1488 -57.1349 78.5711 -15.5048 17.2404 -27.1055 50.6381 11.2839 -70.9253 3.9943 -0.520868 -11.9432 14.0378 2.30582 2.49561 -9.46359 1.4932 1.5376 
146.624 91.2056 -189.143 107.398 50.9833 82.2605 -175.184 14.1712 100.086 -82.3663 10.8601 7.53032 71.1242 6.06731 8.16112 30.5224 5.47292 -8.56397 168.673 19.3235 99.7177 -54.2657 -14.3985 5.82774 79.667 -11.1575 -9.24131 6.31114 -1.77637 6.31194 -0.710177 7.68994 -90.9761 11.4763 -1.86907 -1.75541 -0.194262 -1.94454 -1.67146 -22.7261 -1.25523 -2.23585 -2.71346 -1.25522 -2.23585 90.3783 -32.3869 -105.151 36.0307 -7.03423 -5.81853 4.65451 -21.3091 -13.3383 -21.0635 -0.0241543 -11.3388 -90.4789 -54.8074 79.0349 -22.8405 15.0079 -22.9134 31.8378 22.8519 -46.9113 7.27611 -0.649361 -11.0011 10.6822 0.228347 0.756538 -7.96248 -0.0675066 2.21316 
151.199 94.3783 -193.184 108.306 46.4774 81.0985 -177.233 18.7155 96.4208 -72.8695 -3.01283 5.94662 73.8592 7.13919 6.05717 26.9483 4.28784 -5.73291 171.292 10.4124 98.8235 -47.4252 -16.3816 4.41228 77.88 -10.286 -10.37 7.62882 -4.20636 9.90808 0.303725 7.80465 -90.7411 11.264 0.259519 -1.50113 -0.407827 0.193201 -1.51109 -22.9373 0.69862 -1.35378 -2.92464 0.69863 -1.35379 89.2892 -30.9677 -107.78 37.1731 -6.57076 -10.403 4.58084 -19.766 -13.1094 -24.096 -0.397201 -8.03234 -90.626 -55.5674 78.9814 -18.108 18.0264 -21.6642 11.4581 19.5632 -20.7021 9.63454 -0.295616 -6.31999 8.71829 -1.9701 -0.952035 -8.49872 -1.81974 1.60692 
156.14 97.4825 -197.537 107.623 41.9488 80.4714 -178.627 20.1885 93.4795 -59.1795 -2.34034 4.75639 72.3875 6.77542 6.68226 25.0734 5.63431 -7.04285 173.32 1.2923 96.9467 -38.6237 -19.3936 2.14202 75.2301 -8.39888 -8.49916 10.4802 -4.23342 9.96047 1.08643 7.88948 -90.3694 11.1057 1.99101 -0.930704 -0.564032 1.94813 -1.01747 -23.1115 2.17866 -0.289043 -3.0988 2.17863 -0.28905 89.1316 -30.0453 -108.456 36.0653 -9.19302 -13.4525 -0.392535 -23.6965 -20.9745 -27.6514 -0.461784 -8.47006 -90.0725 -55.4297 79.7322 -14.216 17.7382 -17.8124 3.68916 17.8419 -6.43261 7.30608 -0.203685 -5.12568 7.50208 -3.09237 -2.45087 -6.76937 -2.59048 1.27109 
161.028 99.5664 -201.811 105.183 38.1413 80.6009 -179.584 20.9309 91.0984 -43.7824 10.2302 3.66902 67.2316 4.59369 5.73683 26.6231 4.82693 -6.35877 174.111 -3.99795 95.0553 -33.3086 -20.9271 -0.470804 71.5564 -5.82538 -7.00399 13.6532 -4.49013 10.3981 1.43213 7.72544 -89.9325 11.4272 2.88109 -0.157081 -0.240576 2.87138 -0.283841 -22.8003 2.79498 0.71677 -2.78769 2.79498 0.716763 89.6864 -28.1134 -108.141 33.1604 -15.0789 -18.0219 -4.5793 -27.6874 -29.0104 -32.7591 -0.505988 -9.01372 -89.0954 -52.7688 80.62 -15.0313 15.4133 -4.48852 5.37494 17.9087 -7.92055 -2.88992 -0.0722051 -2.27501 6.92205 -2.80328 -3.14526 -6.8657 -2.12972 0.194818 
165.82 99.8805 -205.783 102.959 33.2201 81.585 -178.467 20.2041 90.5876 -28.369 15.51 0.96492 62.441 2.24967 3.23106 28.042 2.34105 -3.27407 174.814 -8.829 94.1091 -30.3973 -24.072 -3.0362 71.4926 -5.96807 -8.48313 15.6502 -5.29554 11.8639 1.68429 7.62163 -89.793 11.6342 3.44731 0.054146 -0.032146 3.44636 -0.0978188 -22.6013 3.27148 1.08883 -2.58868 3.27148 1.08882 90.0645 -24.8539 -108.763 29.991 -17.9014 -24.3975 -6.89762 -28.7364 -33.4828 -37.1765 -0.391744 -9.37573 -88.1785 -52.0922 81.8337 -15.5919 14.0921 12.6247 8.15821 11.1636 -16.9155 -5.29606 -0.0962595 -4.02308 9.29313 -0.884378 0.442723 -8.36145 -0.849567 -2.10752 
170.495 99.5305 -210.237 103.456 28.6587 80.9227 -177.845 15.4591 88.8653 -14.161 7.41245 -0.946328 57.8702 0.729539 -3.41185 29.6853 -3.08666 4.47449 172.966 -13.8495 90.202 -30.9513 -29.5978 -4.83243 71.1867 -6.22765 -8.15892 19.7823 -5.45511 12.3552 1.89473 7.76201 -89.7416 11.3533 3.89057 0.124742 -0.311848 3.89228 -0.0468762 -22.89 3.67298 1.28984 -2.87732 3.67297 1.28984 90.7493 -23.1445 -108.035 27.0175 -16.7128 -30.3922 -14.7541 -31.3966 -40.3039 -31.4201 -0.0915365 -12.752 -87.4535 -51.2933 82.7644 -16.6405 15.1504 26.6599 6.97801 4.37359 -22.0193 -1.39524 -0.10036 -5.52042 11.3187 1.21719 4.20866 -8.49768 0.417687 -4.00249 
